<svg xmlns="http://www.w3.org/2000/svg"><symbol id="super-domes" viewBox="0 0 256 256"><path d="M125.9 127.8V86.3l-29.5 41.5h29.5zm-55.2 19.5h55.2v22.79H70.7zm53.2-65.1a60.8 60.8 0 0 0-54.6 45.6h22zm6.1-.2v45.8h56.7A60.9 60.9 0 0 0 130 82zm13.4 65.3h41.9v22.79h-41.9z"/><path d="M128 3L19.7 65.5v125L128 253l108.3-62.5v-125zm88.5 144.3h-27.1v24.8a1.9 1.9 0 0 1-2.1 2.1H68.7a1.9 1.9 0 0 1-2.1-2.1v-24.8H39.5a2.1 2.1 0 0 1 0-4.1h15.4v-13.4a1.9 1.9 0 0 1 2.1-2h8a65 65 0 0 1 62.8-49.9c.2-.2.4-.2.8 0 30.4.2 55.6 21.6 62.4 49.9h8a1.9 1.9 0 0 1 2.1 2v13.4h15.4a2.1 2.1 0 0 1 0 4.1z"/><path d="M130 147.3h9.2v22.79H130zm-71-15.4h138v11.29H59z"/></symbol><symbol id="mecha-stilts" viewBox="0 0 256 256"><path d="M121.4 157.1h13.1v12.93h-13.1zm-24.6 0h20.5v12.93H96.8zm41.9 0h20.5v12.93h-20.5zM128 71.5c-24 0-44.1 14.6-45.2 41.1h90.4C172.1 86.1 152 71.5 128 71.5zm-48.5 85.6h13.1v12.93H79.5zM67.2 153h121.6v-36.3H67.2zm59.8-13.9h50.1a2.1 2.1 0 0 1 0 4.1H127a2.1 2.1 0 1 1 0-4.1zm36.3 18h13.1v12.93h-13.1z"/><path d="M128 3L19.7 65.5v125L128 253l108.3-62.5v-125zm64.9 152.1a2 2 0 0 1-2.1 2h-10.2v13h10.2a2.1 2.1 0 1 1 0 4.1H65.2a2.1 2.1 0 1 1 0-4.1h10.2v-13H65.2a1.9 1.9 0 0 1-2.1-2v-40.4a1.9 1.9 0 0 1 2.1-2.1h13.5c1.1-29.2 22.8-45.2 49.3-45.2s48.2 16 49.3 45.2h13.5a2 2 0 0 1 2.1 2.1z"/></symbol><symbol id="space-bubbles" viewBox="0 0 256 256"><path d="M98 149.3H84.5l-18.1 21.4 2.9 4.1 34.7-18.3-6-7.2zm-25-14.7h112.3v10.67H73zm98.1-4.1a48.5 48.5 0 0 0 2.5-15.6 44.5 44.5 0 0 0-88.9 0c0 5.3.4 10.8 2.4 15.6zm-83.8 39.6h28l-8.4-10.3-19.6 10.3zm70.7-20.8l-6.2 7.2 34.9 18.3 2.9-3.9-18.1-21.6H158z"/><path d="M128 3L19.7 65.5v125L128 253l108.3-62.5v-125zm65.7 168.9l-4.7 6.8a2.3 2.3 0 0 1-2.7.6l-9.9-5.1H79.3l-9.8 5.1a2.3 2.3 0 0 1-2.7-.6l-4.7-6.8a2.1 2.1 0 0 1 .2-2.4l17-20.2h-8.4a1.9 1.9 0 0 1-2-2v-14.8a1.9 1.9 0 0 1 2-2h11.9a59.3 59.3 0 0 1-2.2-15.6 48.6 48.6 0 1 1 94.8 15.6h11.9a1.9 1.9 0 0 1 2.1 2v14.8a1.9 1.9 0 0 1-2.1 2h-10.4l16.8 20.2a2.1 2.1 0 0 1 0 2.4z"/><path d="M140.7 170.1h27.9l-19.5-10.3-8.4 10.3zm-37.3-20.8l17.2 20.8h14.8l17.2-20.8h-49.2z"/></symbol></svg>